<?xml version="1.0" standalone="no"?>
<!DOCTYPE svg PUBLIC "-//W3C//DTD SVG 20010904//EN"
 "http://www.w3.org/TR/2001/REC-SVG-20010904/DTD/svg10.dtd">
<svg version="1.0" xmlns="http://www.w3.org/2000/svg"
 width="11811.000000pt" height="11811.000000pt" viewBox="0 0 11811.000000 11811.000000"
 preserveAspectRatio="xMidYMid meet">

<g transform="translate(0.000000,11811.000000) scale(0.100000,-0.100000)"
fill="#000000" stroke="none">
<path d="M0 59055 l0 -59055 59055 0 59055 0 0 59055 0 59055 -59055 0 -59055
0 0 -59055z m26275 -24465 c1430 -76 2906 -573 4181 -1408 l162 -106 -580
-1161 c-319 -638 -581 -1161 -583 -1163 -1 -1 -60 36 -131 84 -756 502 -1621
872 -2424 1034 -397 80 -689 106 -1120 97 -614 -12 -1075 -91 -1478 -253 -728
-292 -1071 -795 -1012 -1484 30 -359 137 -620 340 -834 204 -215 482 -397 778
-510 281 -107 861 -254 1568 -396 970 -195 1358 -285 1850 -430 416 -123 851
-284 1109 -409 500 -244 938 -609 1291 -1072 413 -545 625 -1198 674 -2085 65
-1177 -196 -2161 -778 -2937 -495 -659 -1209 -1148 -2133 -1462 -1066 -362
-2492 -476 -3859 -310 -1511 185 -2924 721 -3990 1515 -158 117 -270 209 -270
220 0 6 1256 2248 1266 2259 1 2 36 -24 76 -56 323 -263 770 -539 1191 -734
727 -339 1506 -547 2337 -626 236 -22 950 -25 1165 -5 646 61 1118 192 1497
415 410 242 659 570 750 990 30 138 33 492 5 632 -54 271 -143 449 -317 629
-152 158 -365 302 -590 399 -280 121 -763 241 -1410 351 -283 49 -269 46 -505
82 -981 146 -1990 391 -2585 626 -417 165 -803 416 -1139 743 -515 499 -793
1001 -940 1700 -88 415 -116 752 -108 1289 6 416 26 631 88 946 373 1892 1821
3080 4109 3369 474 60 1075 84 1515 61z m54630 0 c452 -24 817 -77 1210 -177
915 -231 1716 -684 2335 -1319 654 -671 1105 -1555 1304 -2554 61 -305 97
-597 116 -940 14 -250 14 -4640 0 -4890 -47 -856 -227 -1585 -560 -2265 -610
-1247 -1683 -2127 -3064 -2514 -809 -227 -1780 -281 -2681 -150 -1359 198
-2527 864 -3287 1874 -554 737 -895 1629 -1008 2635 -39 352 -40 423 -40 2865
0 2446 1 2512 41 2869 179 1604 945 2914 2174 3719 951 622 2152 916 3460 847z
m12990 0 c1430 -76 2906 -573 4181 -1408 l162 -106 -580 -1161 c-319 -638
-581 -1161 -583 -1163 -1 -1 -60 36 -131 84 -756 502 -1621 872 -2424 1034
-397 80 -689 106 -1120 97 -614 -12 -1075 -91 -1478 -253 -728 -292 -1071
-795 -1012 -1484 30 -359 137 -620 340 -834 204 -215 482 -397 778 -510 281
-107 861 -254 1568 -396 1350 -271 1938 -426 2619 -692 684 -267 1201 -653
1631 -1219 413 -545 625 -1198 674 -2085 65 -1177 -196 -2161 -778 -2937 -495
-659 -1209 -1148 -2133 -1462 -1066 -362 -2492 -476 -3859 -310 -1511 185
-2924 721 -3990 1515 -158 117 -270 209 -270 220 0 6 1256 2248 1266 2259 1 2
36 -24 76 -56 323 -263 770 -539 1191 -734 727 -339 1506 -547 2337 -626 236
-22 950 -25 1165 -5 646 61 1118 192 1497 415 410 242 659 570 750 990 30 138
33 492 5 632 -54 271 -143 449 -317 629 -152 158 -365 302 -590 399 -280 121
-763 241 -1410 351 -283 49 -269 46 -505 82 -981 146 -1990 391 -2585 626
-417 165 -803 416 -1139 743 -515 499 -793 1001 -940 1700 -88 415 -116 752
-108 1289 6 416 26 631 88 946 373 1892 1821 3080 4109 3369 474 60 1075 84
1515 61z m-51785 -1465 l0 -1325 -1985 0 -1985 0 0 -5970 0 -5970 -1375 0
-1375 0 0 5970 0 5970 -1985 0 -1985 0 0 1325 0 1325 5345 0 5345 0 0 -1325z
m3753 -3512 c3 -5287 -1 -4897 57 -5223 155 -863 635 -1477 1386 -1773 181
-71 415 -128 664 -162 157 -22 588 -31 765 -16 693 58 1204 274 1605 681 355
360 563 815 652 1430 l22 155 3 4873 3 4872 1375 0 1375 0 -3 -4897 c-3 -3683
-6 -4930 -15 -5028 -61 -660 -145 -1103 -303 -1585 -152 -465 -392 -942 -662
-1318 -506 -706 -1224 -1236 -2108 -1555 -859 -311 -1958 -425 -3044 -317
-1172 118 -2139 503 -2890 1152 -151 131 -382 371 -510 530 -119 148 -301 416
-396 583 -362 635 -600 1432 -684 2295 -34 357 -35 467 -35 5313 l0 4827 1370
0 1370 0 3 -4837z m15947 4827 c1107 -47 2019 -259 2796 -648 740 -370 1289
-849 1718 -1497 137 -206 183 -287 292 -508 263 -534 428 -1139 498 -1827 35
-339 37 -540 34 -2945 -5 -2593 -2 -2453 -64 -2885 -135 -938 -467 -1747 -984
-2395 -621 -778 -1552 -1352 -2650 -1634 -434 -111 -816 -171 -1420 -223 -95
-8 -914 -12 -2792 -15 l-2658 -4 0 7296 0 7295 2498 0 c1507 0 2590 -4 2732
-10z m10700 -7285 l0 -7295 -1420 0 -1420 0 0 7295 0 7295 1420 0 1420 0 0
-7295z"/>
<path d="M80300 31844 c-845 -76 -1499 -470 -1879 -1134 -200 -348 -311 -744
-341 -1215 -14 -217 -14 -4463 0 -4680 25 -390 100 -709 239 -1015 179 -395
439 -704 786 -935 311 -207 614 -318 1041 -382 169 -25 636 -25 814 0 567 80
1032 305 1391 673 387 398 614 933 669 1574 6 71 10 998 10 2425 0 1427 -4
2354 -10 2425 -55 639 -282 1174 -670 1574 -353 364 -826 594 -1380 671 -110
16 -564 28 -670 19z"/>
<path d="M59320 27155 l0 -4645 1178 0 c1205 0 1332 3 1607 41 936 127 1613
565 1950 1264 108 222 171 435 217 725 l23 145 0 2470 0 2470 -23 145 c-13 80
-36 201 -53 269 -236 965 -1005 1582 -2149 1725 -259 33 -404 36 -1572 36
l-1178 0 0 -4645z"/>
</g>
</svg>
