<svg xmlns="http://www.w3.org/2000/svg" version="1.0" width="11811.000000pt" height="11811.000000pt" viewBox="0 0 11811.000000 11811.000000" preserveAspectRatio="xMidYMid meet">

<g transform="translate(0.000000,11811.000000) scale(0.100000,-0.100000)" fill="#000000" stroke="none">
<path d="M94580 78010 l0 -17150 -37360 0 -37360 0 0 -2500 0 -2500 42400 0 42400 0 0 19650 0 19650 -5040 0 -5040 0 0 -17150z"/>
<path d="M18976 95043 c15 -27 1774 -2995 3908 -6598 2134 -3602 3880 -6557 3880 -6565 0 -11 -7760 -13279 -8000 -13677 l-44 -73 2679 0 2679 0 2693 4601 c2566 4384 2694 4600 2708 4579 9 -13 1233 -2082 2722 -4599 l2708 -4576 2675 -3 c1472 -1 2676 1 2676 4 0 3 -1832 3094 -4070 6869 l-4070 6863 3861 6598 c2124 3630 3864 6605 3866 6612 4 10 -531 12 -2672 10 l-2677 -3 -2531 -4327 c-1393 -2381 -2534 -4328 -2537 -4328 -3 0 -1157 1949 -2565 4330 l-2560 4329 -2678 1 -2679 0 28 -47z"/>
<path d="M50814 94728 c-77 -200 -2396 -6265 -5154 -13478 l-5015 -13115 2729 -3 c2005 -1 2732 1 2737 9 4 6 345 978 760 2160 l753 2149 4942 0 4942 0 13 -37 c37 -114 1498 -4275 1501 -4279 3 -2 1233 -3 2734 -2 l2730 3 -5138 13435 c-2825 7389 -5144 13454 -5153 13478 l-17 42 -1613 0 -1613 0 -138 -362z m3366 -12785 c884 -2523 1606 -4591 1603 -4595 -2 -5 -1450 -8 -3218 -8 -1768 0 -3216 3 -3218 8 -3 4 703 2028 1569 4497 1822 5198 1645 4697 1651 4691 3 -3 729 -2070 1613 -4593z"/>
<path d="M67830 81620 l0 -13470 2425 0 2425 0 1 9718 c0 7521 3 9713 12 9700 7 -10 2156 -4381 4777 -9715 l4765 -9698 3123 -3 3122 -2 0 13470 0 13470 -2425 0 -2425 0 -1 -9867 c0 -6575 -4 -9863 -10 -9853 -6 8 -2163 4448 -4793 9865 l-4784 9850 -3106 3 -3106 2 0 -13470z"/>
</g>
</svg>
